<?xml version="1.0" standalone="no"?>
<!DOCTYPE svg PUBLIC "-//W3C//DTD SVG 20010904//EN"
 "http://www.w3.org/TR/2001/REC-SVG-20010904/DTD/svg10.dtd">
<svg version="1.0" xmlns="http://www.w3.org/2000/svg"
 width="658.000000pt" height="30.000000pt" viewBox="0 0 658.000000 30.000000"
 preserveAspectRatio="xMidYMid meet">

<g transform="translate(0.000000,30.000000) scale(0.100000,-0.100000)"
fill="#000000" stroke="none">
<path d="M20 220 c0 -16 5 -30 10 -30 6 0 10 9 10 20 0 13 7 20 20 20 18 0 20
-7 20 -75 0 -43 -4 -75 -10 -75 -5 0 -10 -4 -10 -10 0 -5 18 -10 40 -10 22 0
40 5 40 10 0 6 -6 10 -14 10 -18 0 -30 65 -21 114 5 26 12 36 26 36 13 0 19
-7 19 -22 0 -14 3 -19 10 -12 5 5 7 19 4 32 -6 20 -12 22 -75 22 l-69 0 0 -30z"/>
<path d="M238 243 c-39 -4 -54 -23 -19 -23 16 0 20 -10 26 -59 7 -63 3 -81
-21 -81 -8 0 -14 -4 -14 -10 0 -5 25 -10 55 -10 30 0 55 5 55 10 0 6 -11 10
-25 10 -24 0 -25 2 -25 75 0 60 3 75 15 75 8 0 15 5 15 10 0 6 -6 9 -12 8 -7
-1 -30 -3 -50 -5z"/>
<path d="M568 243 c-39 -4 -54 -23 -19 -23 16 0 20 -10 26 -59 7 -63 3 -81
-21 -81 -8 0 -14 -4 -14 -10 0 -5 25 -10 55 -10 30 0 55 5 55 10 0 6 -11 10
-25 10 -24 0 -25 2 -25 75 0 60 3 75 15 75 8 0 15 5 15 10 0 6 -6 9 -12 8 -7
-1 -30 -3 -50 -5z"/>
<path d="M685 241 c-3 -6 -2 -11 3 -11 15 0 25 -130 11 -146 -9 -12 -6 -14 22
-14 29 0 31 1 15 13 -13 10 -17 24 -14 62 l3 50 45 -70 c49 -77 47 -79 52 48
3 74 3 77 -19 77 -23 0 -32 -15 -12 -22 6 -2 9 -24 7 -53 l-3 -50 -35 60 c-35
58 -61 78 -75 56z"/>
<path d="M903 235 c-12 -8 -27 -31 -33 -50 -24 -72 17 -134 79 -120 34 7 36 9
45 48 6 24 4 27 -19 27 -25 0 -35 -15 -13 -22 21 -7 0 -38 -26 -38 -35 0 -60
40 -52 82 13 64 60 88 89 46 l16 -23 0 26 c1 40 -45 52 -86 24z"/>
<path d="M1415 198 c-9 -29 -26 -71 -36 -92 -23 -48 -23 -46 1 -46 14 0 19 6
17 22 -1 16 5 25 25 32 32 11 41 6 41 -29 0 -20 4 -25 23 -25 27 0 30 6 10 25
-8 8 -21 48 -31 90 -9 41 -20 75 -25 75 -4 0 -15 -24 -25 -52z m32 -64 c-3 -4
-13 -4 -22 0 -13 5 -14 10 -4 28 l12 23 10 -23 c6 -12 7 -25 4 -28z"/>
<path d="M1740 235 c-14 -7 -18 -14 -11 -16 18 -6 21 -103 5 -134 l-13 -25 48
0 c69 0 104 36 75 78 -8 12 -12 31 -9 45 11 41 -51 75 -95 52z m74 -30 c8 -22
-4 -45 -24 -45 -17 0 -34 43 -22 55 11 11 40 4 46 -10z m11 -95 c0 -20 -6 -26
-27 -28 -25 -3 -28 0 -28 28 0 28 3 31 28 28 21 -2 27 -8 27 -28z"/>
<path d="M1917 243 c-26 -4 -26 -6 -12 -26 18 -26 20 -128 3 -145 -9 -9 -1
-12 35 -12 61 0 97 31 97 85 0 49 -15 74 -55 91 -19 8 -36 13 -37 13 -2 -1
-15 -4 -31 -6z m87 -35 c19 -27 20 -87 2 -110 -7 -10 -25 -18 -40 -18 -26 0
-26 1 -26 75 0 73 1 75 24 75 14 0 32 -10 40 -22z"/>
<path d="M2125 198 c-9 -29 -26 -71 -36 -92 -23 -48 -23 -46 1 -46 14 0 19 6
17 22 -1 16 5 25 25 32 32 11 41 6 41 -29 0 -20 4 -25 23 -25 27 0 30 6 10 25
-8 8 -21 48 -31 90 -9 41 -20 75 -25 75 -4 0 -15 -24 -25 -52z m32 -64 c-3 -4
-13 -4 -22 0 -13 5 -14 10 -4 28 l12 23 10 -23 c6 -12 7 -25 4 -28z"/>
<path d="M3724 239 c-3 -6 -2 -15 2 -19 12 -12 38 5 30 19 -9 14 -23 14 -32 0z"/>
<path d="M4320 220 c0 -16 5 -30 10 -30 6 0 10 9 10 20 0 13 7 20 20 20 18 0
20 -7 20 -75 0 -43 -4 -75 -10 -75 -5 0 -10 -4 -10 -10 0 -5 18 -10 40 -10 22
0 40 5 40 10 0 6 -6 10 -14 10 -18 0 -30 65 -21 114 5 26 12 36 26 36 13 0 19
-7 19 -22 0 -14 3 -19 10 -12 5 5 7 19 4 32 -6 20 -12 22 -75 22 l-69 0 0 -30z"/>
<path d="M5078 243 c-39 -4 -54 -23 -19 -23 16 0 20 -10 26 -59 7 -63 3 -81
-21 -81 -8 0 -14 -4 -14 -10 0 -5 25 -10 55 -10 30 0 55 5 55 10 0 6 -11 10
-25 10 -24 0 -25 2 -25 75 0 60 3 75 15 75 8 0 15 5 15 10 0 6 -6 9 -12 8 -7
-1 -30 -3 -50 -5z"/>
<path d="M5195 241 c-3 -6 -2 -11 3 -11 15 0 25 -130 11 -146 -9 -12 -6 -14
22 -14 29 0 31 1 15 13 -13 10 -17 24 -14 62 l3 50 45 -70 c49 -77 47 -79 52
48 3 74 3 77 -19 77 -23 0 -32 -15 -12 -22 6 -2 9 -24 7 -53 l-3 -50 -35 60
c-35 58 -61 78 -75 56z"/>
<path d="M5425 198 c-9 -29 -26 -71 -36 -92 -23 -48 -23 -46 1 -46 14 0 19 6
17 22 -1 16 5 25 25 32 32 11 41 6 41 -29 0 -20 4 -25 23 -25 27 0 30 6 10 25
-8 8 -21 48 -31 90 -9 41 -20 75 -25 75 -4 0 -15 -24 -25 -52z m32 -64 c-3 -4
-13 -4 -22 0 -13 5 -14 10 -4 28 l12 23 10 -23 c6 -12 7 -25 4 -28z"/>
<path d="M5881 223 c-12 -14 -24 -38 -28 -52 -8 -33 24 -93 58 -105 37 -13 79
0 79 24 0 11 -4 20 -10 20 -5 0 -10 -7 -10 -15 0 -22 -53 -19 -75 5 -21 23
-25 91 -6 114 17 21 49 21 73 -1 17 -15 18 -15 18 4 0 41 -69 45 -99 6z"/>
<path d="M6031 229 c6 -13 10 -52 7 -95 -3 -65 -1 -74 14 -74 20 0 32 16 18
25 -5 3 -10 20 -10 36 0 28 2 30 33 27 31 -3 32 -5 31 -46 -1 -38 2 -42 23
-42 12 0 23 5 23 10 0 6 -5 10 -11 10 -7 0 -10 28 -8 85 4 84 4 85 -20 85 -18
0 -22 -4 -16 -17 4 -10 10 -28 12 -40 5 -21 1 -23 -32 -23 l-38 0 6 40 c5 37
3 40 -19 40 -22 0 -23 -2 -13 -21z"/>
<path d="M6255 198 c-9 -29 -26 -71 -36 -92 -23 -48 -23 -46 1 -46 14 0 19 6
17 22 -1 16 5 25 25 32 32 11 41 6 41 -29 0 -20 4 -25 23 -25 27 0 30 6 10 25
-8 8 -21 48 -31 90 -9 41 -20 75 -25 75 -4 0 -15 -24 -25 -52z m32 -64 c-3 -4
-13 -4 -22 0 -13 5 -14 10 -4 28 l12 23 10 -23 c6 -12 7 -25 4 -28z"/>
<path d="M6390 220 c0 -16 5 -30 10 -30 6 0 10 9 10 20 0 13 7 20 20 20 18 0
20 -7 20 -75 0 -43 -4 -75 -10 -75 -5 0 -10 -4 -10 -10 0 -5 18 -10 40 -10 22
0 40 5 40 10 0 6 -6 10 -14 10 -18 0 -30 65 -21 114 5 26 12 36 26 36 13 0 19
-7 19 -22 0 -14 3 -19 10 -12 5 5 7 19 4 32 -6 20 -12 22 -75 22 l-69 0 0 -30z"/>
<path d="M368 160 c3 -54 1 -80 -7 -80 -6 0 -11 -4 -11 -10 0 -5 14 -10 31
-10 29 0 30 1 15 22 -18 25 -21 65 -7 87 8 12 12 9 22 -12 l13 -28 22 28 23
28 1 -52 c0 -29 -4 -53 -10 -53 -5 0 -10 -4 -10 -10 0 -5 10 -10 23 -10 21 0
22 3 22 90 0 100 -13 116 -42 55 -9 -19 -20 -35 -23 -35 -3 0 -14 16 -23 35
-29 61 -43 45 -39 -45z"/>
<path d="M1190 230 c0 -5 5 -10 10 -10 14 0 13 -133 -2 -148 -9 -9 3 -12 54
-12 59 0 66 2 71 22 8 28 -2 38 -14 15 -7 -11 -22 -17 -44 -17 l-35 0 0 70 c0
56 3 70 15 70 8 0 15 5 15 10 0 6 -16 10 -35 10 -19 0 -35 -4 -35 -10z"/>
<path d="M1558 160 c3 -54 1 -80 -7 -80 -6 0 -11 -4 -11 -10 0 -5 14 -10 31
-10 29 0 30 1 15 22 -18 25 -21 65 -7 87 8 12 12 9 22 -12 l13 -28 22 28 23
28 1 -52 c0 -29 -4 -53 -10 -53 -5 0 -10 -4 -10 -10 0 -5 10 -10 23 -10 21 0
22 3 22 90 0 100 -13 116 -42 55 -9 -19 -20 -35 -23 -35 -3 0 -14 16 -23 35
-29 61 -43 45 -39 -45z"/>
<path d="M4513 222 c19 -21 24 -126 7 -137 -26 -16 -5 -26 53 -23 58 3 62 5
65 28 2 23 1 24 -11 7 -8 -10 -28 -17 -46 -17 -29 0 -31 2 -31 35 0 35 23 50
33 23 3 -9 7 -7 12 5 4 9 4 25 0 35 -8 16 -8 16 -12 0 -8 -31 -33 -21 -33 12
0 27 3 30 30 30 17 0 33 -7 39 -17 9 -15 10 -14 11 10 0 27 -1 27 -67 27 -63
0 -65 -1 -50 -18z"/>
<path d="M4676 231 c-4 -5 -2 -11 4 -13 11 -3 16 -130 6 -147 -5 -7 4 -11 23
-11 17 0 31 5 31 10 0 6 -4 10 -10 10 -5 0 -10 14 -10 31 0 42 27 35 53 -13
17 -35 47 -52 47 -28 0 6 -3 10 -7 10 -5 0 -16 14 -25 31 -16 27 -16 33 -3 52
19 28 19 33 -5 57 -21 21 -94 28 -104 11z m89 -41 c0 -18 -6 -26 -22 -28 -20
-3 -23 1 -23 28 0 27 3 31 23 28 16 -2 22 -10 22 -28z"/>
<path d="M4868 160 c3 -54 1 -80 -7 -80 -6 0 -11 -4 -11 -10 0 -5 14 -10 31
-10 29 0 30 1 15 22 -18 25 -21 65 -7 87 8 12 12 9 22 -12 l13 -28 22 28 23
28 1 -52 c0 -29 -4 -53 -10 -53 -5 0 -10 -4 -10 -10 0 -5 10 -10 23 -10 21 0
22 3 22 90 0 100 -13 116 -42 55 -9 -19 -20 -35 -23 -35 -3 0 -14 16 -23 35
-29 61 -43 45 -39 -45z"/>
<path d="M5560 230 c0 -5 5 -10 10 -10 14 0 13 -133 -2 -148 -9 -9 3 -12 54
-12 59 0 66 2 71 22 8 28 -2 38 -14 15 -7 -11 -22 -17 -44 -17 l-35 0 0 70 c0
56 3 70 15 70 8 0 15 5 15 10 0 6 -16 10 -35 10 -19 0 -35 -4 -35 -10z"/>
<path d="M3560 210 c0 -11 -5 -20 -12 -20 -9 0 -9 -3 0 -12 7 -7 12 -30 12
-53 0 -23 5 -46 12 -53 16 -16 50 -15 73 2 17 12 15 14 -21 12 l-39 -1 0 40
c0 36 3 40 28 43 33 4 36 22 3 22 -16 0 -27 7 -31 20 -3 11 -11 20 -16 20 -5
0 -9 -9 -9 -20z"/>
<path d="M3418 189 c-10 -5 -18 -17 -18 -24 0 -20 16 -19 24 0 3 8 15 15 26
15 32 0 21 -31 -15 -43 -57 -18 -72 -47 -36 -67 25 -13 116 -1 102 13 -6 6
-11 30 -11 54 0 32 -5 45 -19 53 -24 12 -31 12 -53 -1z m50 -81 c-2 -17 -11
-24 -30 -26 -35 -4 -39 24 -5 38 34 14 39 12 35 -12z"/>
<path d="M2430 170 c-39 -39 -11 -110 44 -110 13 0 34 9 47 21 21 18 21 20 4
13 -42 -15 -69 -10 -84 18 -15 26 -15 29 6 50 18 17 25 20 35 10 7 -7 18 -12
26 -12 12 0 12 3 2 15 -17 21 -56 19 -80 -5z"/>
<path d="M2596 166 c-32 -31 -33 -50 -1 -81 29 -30 58 -32 85 -5 37 37 20 93
-32 105 -21 5 -33 1 -52 -19z m75 -17 c16 -31 -3 -69 -34 -69 -31 0 -48 36
-34 68 13 29 52 29 68 1z"/>
<path d="M2735 180 c-3 -4 5 -10 17 -13 17 -5 20 -11 15 -39 -3 -18 -8 -41
-12 -50 -6 -15 -1 -18 34 -18 23 0 41 5 41 10 0 6 -9 10 -21 10 -18 0 -20 5
-17 43 3 39 5 42 38 48 19 4 33 8 30 9 -13 7 -121 7 -125 0z"/>
<path d="M2897 184 c-3 -3 -2 -16 3 -28 4 -13 7 -53 5 -89 -4 -65 -4 -67 20
-67 14 0 25 5 25 10 0 6 -4 10 -10 10 -5 0 -10 9 -10 20 0 15 7 20 24 20 27 0
66 42 66 71 0 32 -36 59 -78 59 -21 0 -41 -3 -45 -6z m93 -39 c12 -32 -6 -65
-35 -65 -23 0 -25 3 -25 46 0 43 1 45 26 42 16 -2 30 -11 34 -23z"/>
<path d="M3076 166 c-32 -31 -33 -50 -1 -81 29 -30 58 -32 85 -5 37 37 20 93
-32 105 -21 5 -33 1 -52 -19z m75 -17 c16 -31 -3 -69 -34 -69 -31 0 -48 36
-34 68 13 29 52 29 68 1z"/>
<path d="M3215 180 c-3 -4 5 -10 17 -13 17 -5 20 -11 15 -39 -3 -18 -8 -41
-12 -50 -6 -15 -1 -18 34 -18 23 0 41 5 41 10 0 6 -9 10 -21 10 -18 0 -20 5
-17 43 3 39 5 42 38 48 19 4 33 8 30 9 -13 7 -121 7 -125 0z"/>
<path d="M3695 180 c-3 -5 3 -10 14 -10 18 0 21 -6 21 -45 0 -33 -4 -45 -14
-45 -8 0 -18 -4 -21 -10 -4 -6 13 -10 44 -10 28 0 51 5 51 10 0 6 -9 10 -20
10 -18 0 -20 7 -20 55 0 52 -1 55 -24 55 -14 0 -28 -4 -31 -10z"/>
<path d="M3846 166 c-32 -31 -33 -50 -1 -81 29 -30 58 -32 85 -5 37 37 20 93
-32 105 -21 5 -33 1 -52 -19z m75 -17 c16 -31 -3 -69 -34 -69 -31 0 -48 36
-34 68 13 29 52 29 68 1z"/>
<path d="M3991 180 c-9 -5 -8 -9 4 -14 14 -5 17 -16 13 -56 -5 -47 -4 -50 18
-50 13 0 24 5 24 10 0 6 -5 10 -11 10 -6 0 -9 17 -7 43 3 38 6 42 32 45 l29 4
-5 -56 c-4 -53 -3 -56 18 -56 27 0 40 16 19 24 -10 4 -15 20 -15 50 0 34 -4
46 -17 50 -26 7 -88 5 -102 -4z"/>
<path d="M5730 154 c0 -12 6 -15 23 -10 12 3 32 6 45 6 12 0 22 5 22 10 0 6
-20 10 -45 10 -35 0 -45 -4 -45 -16z"/>
</g>
</svg>
